<svg width="43" height="43" viewBox="0 0 43 43" fill="none" xmlns="http://www.w3.org/2000/svg">
<g clip-path="url(#clip0)">
<path d="M35.4994 0H7.23041C3.23717 0 0 3.23717 0 7.23042V35.4994C0 39.4927 3.23717 42.7298 7.23041 42.7298H35.4994C39.4927 42.7298 42.7298 39.4927 42.7298 35.4994V7.23042C42.7298 3.23717 39.4927 0 35.4994 0Z" fill="#3A579C"/>
<path d="M18.6414 32.1387H22.8688V21.5522H25.8182L26.133 18.0072H22.8688V15.9888C22.8688 15.1532 23.039 14.823 23.8449 14.823H26.1296V11.1436H23.2024C20.0539 11.1436 18.638 12.5297 18.638 15.1813V18.0072H16.4391V21.5965H18.6414V32.1387Z" fill="white"/>
</g>
<defs>
<clipPath id="clip0">
<rect width="42.73" height="42.73" fill="white"/>
</clipPath>
</defs>
</svg>
