<svg width="43" height="43" viewBox="0 0 43 43" fill="none" xmlns="http://www.w3.org/2000/svg">
<g clip-path="url(#clip0)">
<path d="M35.4994 0H7.23042C3.23717 0 0 3.23717 0 7.23041V35.4994C0 39.4927 3.23717 42.7298 7.23042 42.7298H35.4994C39.4927 42.7298 42.7299 39.4927 42.7299 35.4994V7.23041C42.7299 3.23717 39.4927 0 35.4994 0Z" fill="url(#paint0_radial)"/>
<path d="M21.2445 33.6961C17.959 33.6961 17.5276 33.6816 16.2316 33.6229C15.0573 33.5693 14.1468 33.3949 13.2788 33.0571C12.4708 32.7445 11.7369 32.2665 11.1242 31.6539C10.5116 31.0412 10.0337 30.3074 9.72107 29.4993C9.38069 28.6313 9.2105 27.7208 9.15604 26.5474C9.09648 25.2506 9.08286 24.82 9.08286 21.5345C9.08286 18.2491 9.09648 17.8185 9.15604 16.5216C9.20965 15.3482 9.38409 14.4377 9.72107 13.5698C10.0337 12.7617 10.5116 12.0278 11.1242 11.4152C11.7369 10.8025 12.4708 10.3246 13.2788 10.012C14.1468 9.6716 15.0573 9.50143 16.2316 9.44611C17.525 9.3874 17.9556 9.37292 21.2445 9.37292C24.5333 9.37292 24.9631 9.3874 26.2573 9.44611C27.4308 9.49972 28.3413 9.67416 29.2092 10.012C30.0174 10.3247 30.7513 10.8027 31.364 11.4155C31.9766 12.0283 32.4545 12.7624 32.767 13.5706C33.1074 14.4386 33.2776 15.3491 33.332 16.5225C33.3916 17.8202 33.4052 18.2508 33.4052 21.5354C33.4052 24.82 33.3916 25.2506 33.332 26.5482C33.2784 27.7208 33.1048 28.6322 32.767 29.5001C32.4544 30.3082 31.9765 31.0421 31.3638 31.6547C30.7512 32.2674 30.0173 32.7453 29.2092 33.0579C28.3413 33.3983 27.4308 33.5685 26.2573 33.6238C24.9605 33.6816 24.5291 33.6961 21.2445 33.6961ZM21.2445 11.5718C17.9956 11.5718 17.6118 11.5837 16.332 11.6424C15.1466 11.6968 14.5033 11.8977 14.0753 12.061C13.5514 12.2631 13.0755 12.5726 12.6784 12.9696C12.2812 13.3666 11.9715 13.8424 11.7693 14.3662C11.5991 14.7917 11.4051 15.4384 11.3515 16.6229C11.2927 17.8993 11.28 18.2865 11.28 21.5354C11.28 24.7843 11.2927 25.168 11.3515 26.4478C11.4051 27.6323 11.6067 28.2756 11.7693 28.7045C11.9712 29.2286 12.2807 29.7045 12.6779 30.1016C13.0751 30.4986 13.5511 30.808 14.0753 31.0097C14.5008 31.1799 15.1466 31.3748 16.332 31.4284C17.6084 31.4871 17.9956 31.499 21.2445 31.499C24.4933 31.499 24.8771 31.4871 26.1569 31.4284C27.3423 31.3748 27.9856 31.1731 28.4136 31.0097C28.9376 30.8078 29.4134 30.4984 29.8104 30.1013C30.2075 29.7043 30.5169 29.2285 30.7188 28.7045C30.889 28.2791 31.083 27.6323 31.1375 26.4478C31.1953 25.1646 31.2081 24.78 31.2081 21.5354C31.2081 18.2908 31.1953 17.9061 31.1375 16.6229C31.083 15.4376 30.8822 14.7943 30.7188 14.3662C30.5165 13.8425 30.207 13.3668 29.81 12.9699C29.413 12.5729 28.9373 12.2633 28.4136 12.061C27.9881 11.8909 27.3414 11.6968 26.1569 11.6424C24.8771 11.5828 24.4925 11.5709 21.2445 11.5709V11.5718Z" fill="white"/>
<path d="M21.2444 15.3577C20.0219 15.3576 18.8267 15.7199 17.8101 16.399C16.7935 17.0781 16.0011 18.0434 15.5331 19.1729C15.0652 20.3024 14.9426 21.5452 15.181 22.7443C15.4194 23.9434 16.0081 25.0449 16.8725 25.9094C17.7369 26.774 18.8383 27.3627 20.0374 27.6013C21.2364 27.8399 22.4793 27.7175 23.6089 27.2497C24.7384 26.7819 25.7038 25.9896 26.383 24.9731C27.0623 23.9566 27.4248 22.7615 27.4248 21.5389C27.4248 19.8997 26.7737 18.3276 25.6147 17.1685C24.4557 16.0093 22.8837 15.358 21.2444 15.3577V15.3577ZM21.2444 25.5511C20.4509 25.5511 19.6752 25.3158 19.0154 24.8749C18.3556 24.4341 17.8413 23.8075 17.5377 23.0743C17.234 22.3412 17.1545 21.5345 17.3094 20.7562C17.4642 19.9779 17.8463 19.263 18.4074 18.7019C18.9685 18.1408 19.6834 17.7587 20.4617 17.6039C21.24 17.4491 22.0467 17.5285 22.7798 17.8322C23.513 18.1358 24.1396 18.6501 24.5805 19.3099C25.0213 19.9697 25.2566 20.7454 25.2566 21.5389C25.2566 22.0658 25.1528 22.5876 24.9512 23.0743C24.7496 23.5611 24.454 24.0034 24.0815 24.376C23.7089 24.7485 23.2666 25.0441 22.7798 25.2457C22.2931 25.4473 21.7713 25.5511 21.2444 25.5511" fill="white"/>
<path d="M29.1931 15.0441C29.1933 15.3327 29.1078 15.615 28.9476 15.8551C28.7873 16.0952 28.5594 16.2823 28.2928 16.3929C28.0261 16.5035 27.7327 16.5325 27.4495 16.4763C27.1664 16.4201 26.9063 16.2812 26.7021 16.0771C26.4979 15.8731 26.3588 15.613 26.3025 15.3299C26.2461 15.0468 26.2749 14.7534 26.3854 14.4866C26.4958 14.2199 26.6828 13.992 26.9229 13.8316C27.1629 13.6712 27.4451 13.5856 27.7337 13.5856C28.1206 13.5856 28.4917 13.7392 28.7654 14.0127C29.039 14.2862 29.1929 14.6572 29.1931 15.0441" fill="white"/>
</g>
<defs>
<radialGradient id="paint0_radial" cx="0" cy="0" r="1" gradientUnits="userSpaceOnUse" gradientTransform="translate(3.15443 46.5293) scale(67.6691)">
<stop stop-color="#F7941D"/>
<stop offset="0.35" stop-color="#F15A29"/>
<stop offset="0.57" stop-color="#EE2A7B"/>
<stop offset="0.81" stop-color="#662D91"/>
<stop offset="0.86" stop-color="#5B2B89"/>
<stop offset="0.95" stop-color="#3C2672"/>
<stop offset="1" stop-color="#262262"/>
</radialGradient>
<clipPath id="clip0">
<rect width="42.73" height="42.73" fill="white"/>
</clipPath>
</defs>
</svg>
