<svg width="43" height="43" viewBox="0 0 43 43" fill="none" xmlns="http://www.w3.org/2000/svg">
<g clip-path="url(#clip0)">
<path d="M35.4994 0H7.23042C3.23717 0 0 3.23717 0 7.23042V35.4994C0 39.4927 3.23717 42.7299 7.23042 42.7299H35.4994C39.4927 42.7299 42.7298 39.4927 42.7298 35.4994V7.23042C42.7298 3.23717 39.4927 0 35.4994 0Z" fill="#0074B1"/>
<path d="M16.3823 17.3463H12.0902V31.2132H16.3823V17.3463Z" fill="white"/>
<path d="M14.2167 15.5278C14.7235 15.5318 15.2202 15.3852 15.6437 15.1066C16.0671 14.8279 16.3983 14.4298 16.5951 13.9627C16.7919 13.4955 16.8456 12.9805 16.7492 12.4828C16.6529 11.9851 16.4109 11.5273 16.0539 11.1673C15.697 10.8074 15.2412 10.5616 14.7444 10.4611C14.2475 10.3606 13.732 10.41 13.2632 10.6029C12.7945 10.7958 12.3936 11.1236 12.1114 11.5447C11.8292 11.9658 11.6785 12.4613 11.6783 12.9682C11.6765 13.6439 11.9427 14.2928 12.4185 14.7726C12.8943 15.2524 13.5409 15.524 14.2167 15.5278Z" fill="white"/>
<path d="M23.2442 23.9346C23.2442 21.9851 24.1411 20.8236 25.86 20.8236C27.4376 20.8236 28.1958 21.9383 28.1958 23.9346V31.2135H32.4684V22.4335C32.4684 18.7192 30.3632 16.9229 27.4232 16.9229C26.588 16.9113 25.764 17.1163 25.0317 17.5179C24.2993 17.9195 23.6835 18.504 23.2442 19.2145V17.3424H19.1265V31.2126H23.2442V23.9346Z" fill="white"/>
</g>
<defs>
<clipPath id="clip0">
<rect width="42.73" height="42.73" fill="white"/>
</clipPath>
</defs>
</svg>
