<svg width="43" height="43" viewBox="0 0 43 43" fill="none" xmlns="http://www.w3.org/2000/svg">
<g clip-path="url(#clip0)">
<path d="M35.4994 0H7.23042C3.23717 0 0 3.23716 0 7.23041V35.4994C0 39.4926 3.23717 42.7298 7.23042 42.7298H35.4994C39.4927 42.7298 42.7298 39.4926 42.7298 35.4994V7.23041C42.7298 3.23716 39.4927 0 35.4994 0Z" fill="#BD2026"/>
<path d="M17.6681 30.3793C17.635 30.38 17.6027 30.3685 17.5775 30.347C17.5522 30.3255 17.5357 30.2955 17.5311 30.2627L17.5252 30.2184C17.3958 29.3556 17.2291 27.7005 17.5558 26.3041L18.8833 20.6326C18.6569 20.1141 18.5427 19.5535 18.548 18.9878C18.548 17.4765 19.4253 16.2903 20.552 16.2886C21.4029 16.2886 21.9586 16.9004 21.9603 17.8501C21.9603 18.4585 21.716 19.2575 21.4565 20.1033C21.311 20.5782 21.1604 21.0692 21.0481 21.5448C20.9868 21.7803 20.9806 22.0267 21.03 22.2649C21.0795 22.5031 21.1832 22.7266 21.3331 22.9182C21.4979 23.1187 21.7061 23.2791 21.9419 23.3871C22.1778 23.4952 22.4352 23.5482 22.6946 23.542C24.5735 23.542 25.9861 21.1594 25.9801 18.0109C25.9801 15.59 24.2782 14.0285 21.6471 14.0336C18.3217 14.0396 16.5313 16.6094 16.5364 19.0235C16.5364 19.8515 16.7627 20.5177 17.2257 21.0658C17.4222 21.2964 17.446 21.3891 17.3771 21.6469C17.349 21.7542 17.3014 21.9439 17.2571 22.1226C17.2214 22.2656 17.1874 22.4017 17.1661 22.4826C17.1167 22.6732 16.9908 22.7821 16.8215 22.7829C16.76 22.782 16.6994 22.7693 16.6428 22.7455C15.3068 22.2035 14.5069 20.7177 14.5035 18.7725C14.4975 15.5772 17.2733 12.2662 21.9288 12.2577C26.0533 12.25 28.5227 15.2768 28.5287 18.2075C28.5363 22.4068 26.2311 25.3443 22.9261 25.3502C21.8633 25.3502 20.769 24.7963 20.3801 24.0576C20.3801 24.0806 19.7844 26.4598 19.6576 26.9176C19.2739 28.3217 18.2374 29.7479 17.8094 30.2967L17.7856 30.3265C17.7715 30.3439 17.7535 30.3577 17.7331 30.3668C17.7127 30.376 17.6905 30.3803 17.6681 30.3793V30.3793Z" fill="white"/>
</g>
<defs>
<clipPath id="clip0">
<rect width="42.73" height="42.73" fill="white"/>
</clipPath>
</defs>
</svg>
