<svg width="43" height="43" viewBox="0 0 43 43" fill="none" xmlns="http://www.w3.org/2000/svg">
<g clip-path="url(#clip0)">
<path d="M35.4994 0H7.23042C3.23717 0 0 3.23717 0 7.23042V35.4994C0 39.4927 3.23717 42.7298 7.23042 42.7298H35.4994C39.4927 42.7298 42.7298 39.4927 42.7298 35.4994V7.23042C42.7298 3.23717 39.4927 0 35.4994 0Z" fill="#4198D3"/>
<path d="M17.5217 29.9432C15.0844 29.9441 12.6981 29.2447 10.647 27.9282C11.0052 27.9639 11.3669 27.9852 11.7234 27.9852C13.7392 27.9825 15.6965 27.3072 17.2851 26.0663C16.3492 26.0516 15.4415 25.7435 14.6899 25.1855C13.9384 24.6275 13.3808 23.8478 13.096 22.9561C13.3769 23.006 13.6616 23.0317 13.9469 23.0327C14.3436 23.0325 14.7385 22.9795 15.1212 22.8753C13.0202 22.4592 11.4741 20.5437 11.5226 18.4249C12.148 18.7678 12.8452 18.959 13.558 18.9831C12.608 18.35 11.9352 17.3783 11.6769 16.2663C11.4185 15.1543 11.594 13.9856 12.1676 12.9984C13.2965 14.3804 14.7022 15.5107 16.2942 16.3168C17.8862 17.1228 19.6293 17.5867 21.4113 17.6786C21.2578 17.0206 21.2549 16.3365 21.4027 15.6772C21.5506 15.018 21.8455 14.4006 22.2654 13.8713C22.6853 13.342 23.2193 12.9143 23.8276 12.6202C24.4358 12.3262 25.1027 12.1733 25.7783 12.173C26.3919 12.174 26.9989 12.3001 27.5621 12.5437C28.1252 12.7873 28.6328 13.1433 29.0536 13.5898C30.0562 13.3907 31.0176 13.0223 31.8966 12.5006C31.5696 13.5435 30.8702 14.4295 29.9318 14.9896C30.8191 14.8794 31.6855 14.6397 32.5033 14.2783C31.9076 15.1833 31.1515 15.9717 30.2721 16.6047C30.4287 20.0553 29.0808 23.6241 26.6667 26.1488C25.0074 27.8797 22.0776 29.9432 17.5217 29.9432Z" fill="white"/>
</g>
<defs>
<clipPath id="clip0">
<rect width="42.73" height="42.73" fill="white"/>
</clipPath>
</defs>
</svg>
